<svg width="333" height="102" viewBox="0 0 333 102" fill="none" xmlns="http://www.w3.org/2000/svg">
<g clip-path="url(#clip0_6_41)">
<rect width="333" height="102" rx="2" fill="#404040"/>
<rect width="333" height="102" fill="white"/>
<path d="M104.064 70V64.192H121.008V70H104.064ZM104.064 42.208V36.4H121.008V42.208H104.064ZM104.064 55.024V49.312H120.048V55.024H104.064ZM99.648 36.4H106.272V70H99.648V36.4ZM133.101 58.72C133.805 59.968 134.573 61.056 135.405 61.984C136.269 62.912 137.213 63.632 138.237 64.144C139.261 64.656 140.365 64.912 141.549 64.912C142.925 64.912 144.045 64.56 144.909 63.856C145.773 63.152 146.205 62.192 146.205 60.976C146.205 59.92 145.933 59.072 145.389 58.432C144.877 57.792 144.093 57.232 143.037 56.752C142.013 56.24 140.749 55.696 139.245 55.12C138.445 54.832 137.517 54.448 136.461 53.968C135.437 53.456 134.461 52.816 133.533 52.048C132.605 51.248 131.837 50.288 131.229 49.168C130.621 48.016 130.317 46.64 130.317 45.04C130.317 43.12 130.797 41.472 131.757 40.096C132.749 38.688 134.077 37.616 135.741 36.88C137.437 36.112 139.325 35.728 141.405 35.728C143.549 35.728 145.389 36.096 146.925 36.832C148.493 37.536 149.789 38.448 150.813 39.568C151.869 40.656 152.685 41.792 153.261 42.976L147.885 45.952C147.437 45.152 146.893 44.432 146.253 43.792C145.645 43.12 144.941 42.592 144.141 42.208C143.341 41.792 142.429 41.584 141.405 41.584C140.061 41.584 139.053 41.904 138.381 42.544C137.709 43.152 137.373 43.872 137.373 44.704C137.373 45.536 137.645 46.272 138.189 46.912C138.733 47.52 139.565 48.112 140.685 48.688C141.805 49.232 143.213 49.792 144.909 50.368C145.997 50.752 147.037 51.232 148.029 51.808C149.053 52.384 149.965 53.088 150.765 53.92C151.597 54.72 152.237 55.68 152.685 56.8C153.165 57.888 153.405 59.152 153.405 60.592C153.405 62.224 153.085 63.68 152.445 64.96C151.805 66.24 150.925 67.328 149.805 68.224C148.685 69.088 147.421 69.744 146.013 70.192C144.637 70.672 143.181 70.912 141.645 70.912C139.597 70.912 137.677 70.528 135.885 69.76C134.125 68.96 132.589 67.888 131.277 66.544C129.965 65.2 128.941 63.744 128.205 62.176L133.101 58.72ZM158.041 42.592V36.4H183.001V42.592H173.929V70H167.065V42.592H158.041ZM189.176 62.368L189.992 56.944H206.12L206.936 62.368H189.176ZM197.96 47.296L192.92 58.864L193.064 60.4L188.648 70H180.92L197.96 34.432L215 70H207.224L202.904 60.688L203 58.96L197.96 47.296ZM214.31 42.592V36.4H239.27V42.592H230.198V70H223.334V42.592H214.31ZM249.986 70V64.192H266.93V70H249.986ZM249.986 42.208V36.4H266.93V42.208H249.986ZM249.986 55.024V49.312H265.97V55.024H249.986ZM245.57 36.4H252.194V70H245.57V36.4ZM293.999 36.4H302.399L292.079 52.672L303.119 70H294.719L288.047 57.952L281.135 70H272.735L284.063 52.672L273.935 36.4H282.335L288.095 46.96L293.999 36.4Z" fill="#37517E"/>
<path d="M73.1143 26.5627H66.4872V19H86.0242V38.5369H78.4615V31.9108L31.7085 78.6638L26.3608 73.3162L73.1143 26.5627Z" fill="#37517E"/>
<path d="M31.3476 23.2586L26 28.6063L45.0972 47.7034L50.4448 42.3558L31.3476 23.2586Z" fill="#37517E"/>
<path d="M57.3203 59.9266L62.668 54.579L78.4615 70.3725V63.7459H86.0242V83.2828H66.4872V75.7201H73.1139L57.3203 59.9266Z" fill="#37517E"/>
</g>
<rect x="0.5" y="0.5" width="332" height="101" rx="1.5" stroke="white" stroke-opacity="0.1"/>
<defs>
<clipPath id="clip0_6_41">
<rect width="333" height="102" rx="2" fill="white"/>
</clipPath>
</defs>
</svg>
