<svg width="333" height="100" viewBox="0 0 333 100" fill="none" xmlns="http://www.w3.org/2000/svg">
<g clip-path="url(#clip0_6_39)">
<rect width="333" height="100" rx="2" fill="#404040"/>
<rect width="333" height="100" fill="#37517E"/>
<path d="M114.064 74V68.192H131.008V74H114.064ZM114.064 46.208V40.4H131.008V46.208H114.064ZM114.064 59.024V53.312H130.048V59.024H114.064ZM109.648 40.4H116.272V74H109.648V40.4ZM143.101 62.72C143.805 63.968 144.573 65.056 145.405 65.984C146.269 66.912 147.213 67.632 148.237 68.144C149.261 68.656 150.365 68.912 151.549 68.912C152.925 68.912 154.045 68.56 154.909 67.856C155.773 67.152 156.205 66.192 156.205 64.976C156.205 63.92 155.933 63.072 155.389 62.432C154.877 61.792 154.093 61.232 153.037 60.752C152.013 60.24 150.749 59.696 149.245 59.12C148.445 58.832 147.517 58.448 146.461 57.968C145.437 57.456 144.461 56.816 143.533 56.048C142.605 55.248 141.837 54.288 141.229 53.168C140.621 52.016 140.317 50.64 140.317 49.04C140.317 47.12 140.797 45.472 141.757 44.096C142.749 42.688 144.077 41.616 145.741 40.88C147.437 40.112 149.325 39.728 151.405 39.728C153.549 39.728 155.389 40.096 156.925 40.832C158.493 41.536 159.789 42.448 160.813 43.568C161.869 44.656 162.685 45.792 163.261 46.976L157.885 49.952C157.437 49.152 156.893 48.432 156.253 47.792C155.645 47.12 154.941 46.592 154.141 46.208C153.341 45.792 152.429 45.584 151.405 45.584C150.061 45.584 149.053 45.904 148.381 46.544C147.709 47.152 147.373 47.872 147.373 48.704C147.373 49.536 147.645 50.272 148.189 50.912C148.733 51.52 149.565 52.112 150.685 52.688C151.805 53.232 153.213 53.792 154.909 54.368C155.997 54.752 157.037 55.232 158.029 55.808C159.053 56.384 159.965 57.088 160.765 57.92C161.597 58.72 162.237 59.68 162.685 60.8C163.165 61.888 163.405 63.152 163.405 64.592C163.405 66.224 163.085 67.68 162.445 68.96C161.805 70.24 160.925 71.328 159.805 72.224C158.685 73.088 157.421 73.744 156.013 74.192C154.637 74.672 153.181 74.912 151.645 74.912C149.597 74.912 147.677 74.528 145.885 73.76C144.125 72.96 142.589 71.888 141.277 70.544C139.965 69.2 138.941 67.744 138.205 66.176L143.101 62.72ZM168.041 46.592V40.4H193.001V46.592H183.929V74H177.065V46.592H168.041ZM199.176 66.368L199.992 60.944H216.12L216.936 66.368H199.176ZM207.96 51.296L202.92 62.864L203.064 64.4L198.648 74H190.92L207.96 38.432L225 74H217.224L212.904 64.688L213 62.96L207.96 51.296ZM224.31 46.592V40.4H249.27V46.592H240.198V74H233.334V46.592H224.31ZM259.986 74V68.192H276.93V74H259.986ZM259.986 46.208V40.4H276.93V46.208H259.986ZM259.986 59.024V53.312H275.97V59.024H259.986ZM255.57 40.4H262.194V74H255.57V40.4ZM303.999 40.4H312.399L302.079 56.672L313.119 74H304.719L298.047 61.952L291.135 74H282.735L294.063 56.672L283.935 40.4H292.335L298.095 50.96L303.999 40.4Z" fill="white"/>
<path d="M73.1143 30.5627H66.4872V23H86.0242V42.5369H78.4615V35.9108L31.7085 82.6638L26.3608 77.3162L73.1143 30.5627Z" fill="white"/>
<path d="M31.3476 27.2586L26 32.6063L45.0972 51.7034L50.4448 46.3558L31.3476 27.2586Z" fill="white"/>
<path d="M57.3203 63.9266L62.668 58.579L78.4615 74.3725V67.7459H86.0242V87.2828H66.4872V79.7201H73.1139L57.3203 63.9266Z" fill="white"/>
</g>
<rect x="0.5" y="0.5" width="332" height="99" rx="1.5" stroke="white" stroke-opacity="0.1"/>
<defs>
<clipPath id="clip0_6_39">
<rect width="333" height="100" rx="2" fill="white"/>
</clipPath>
</defs>
</svg>
