<svg width="333" height="102" viewBox="0 0 333 102" fill="none" xmlns="http://www.w3.org/2000/svg">
<g clip-path="url(#clip0_6_37)">
<rect width="333" height="102" rx="2" fill="#404040"/>
<rect y="-1" width="333" height="103" fill="black"/>
<path d="M114.064 73V67.192H131.008V73H114.064ZM114.064 45.208V39.4H131.008V45.208H114.064ZM114.064 58.024V52.312H130.048V58.024H114.064ZM109.648 39.4H116.272V73H109.648V39.4ZM143.101 61.72C143.805 62.968 144.573 64.056 145.405 64.984C146.269 65.912 147.213 66.632 148.237 67.144C149.261 67.656 150.365 67.912 151.549 67.912C152.925 67.912 154.045 67.56 154.909 66.856C155.773 66.152 156.205 65.192 156.205 63.976C156.205 62.92 155.933 62.072 155.389 61.432C154.877 60.792 154.093 60.232 153.037 59.752C152.013 59.24 150.749 58.696 149.245 58.12C148.445 57.832 147.517 57.448 146.461 56.968C145.437 56.456 144.461 55.816 143.533 55.048C142.605 54.248 141.837 53.288 141.229 52.168C140.621 51.016 140.317 49.64 140.317 48.04C140.317 46.12 140.797 44.472 141.757 43.096C142.749 41.688 144.077 40.616 145.741 39.88C147.437 39.112 149.325 38.728 151.405 38.728C153.549 38.728 155.389 39.096 156.925 39.832C158.493 40.536 159.789 41.448 160.813 42.568C161.869 43.656 162.685 44.792 163.261 45.976L157.885 48.952C157.437 48.152 156.893 47.432 156.253 46.792C155.645 46.12 154.941 45.592 154.141 45.208C153.341 44.792 152.429 44.584 151.405 44.584C150.061 44.584 149.053 44.904 148.381 45.544C147.709 46.152 147.373 46.872 147.373 47.704C147.373 48.536 147.645 49.272 148.189 49.912C148.733 50.52 149.565 51.112 150.685 51.688C151.805 52.232 153.213 52.792 154.909 53.368C155.997 53.752 157.037 54.232 158.029 54.808C159.053 55.384 159.965 56.088 160.765 56.92C161.597 57.72 162.237 58.68 162.685 59.8C163.165 60.888 163.405 62.152 163.405 63.592C163.405 65.224 163.085 66.68 162.445 67.96C161.805 69.24 160.925 70.328 159.805 71.224C158.685 72.088 157.421 72.744 156.013 73.192C154.637 73.672 153.181 73.912 151.645 73.912C149.597 73.912 147.677 73.528 145.885 72.76C144.125 71.96 142.589 70.888 141.277 69.544C139.965 68.2 138.941 66.744 138.205 65.176L143.101 61.72ZM168.041 45.592V39.4H193.001V45.592H183.929V73H177.065V45.592H168.041ZM199.176 65.368L199.992 59.944H216.12L216.936 65.368H199.176ZM207.96 50.296L202.92 61.864L203.064 63.4L198.648 73H190.92L207.96 37.432L225 73H217.224L212.904 63.688L213 61.96L207.96 50.296ZM224.31 45.592V39.4H249.27V45.592H240.198V73H233.334V45.592H224.31ZM259.986 73V67.192H276.93V73H259.986ZM259.986 45.208V39.4H276.93V45.208H259.986ZM259.986 58.024V52.312H275.97V58.024H259.986ZM255.57 39.4H262.194V73H255.57V39.4ZM303.999 39.4H312.399L302.079 55.672L313.119 73H304.719L298.047 60.952L291.135 73H282.735L294.063 55.672L283.935 39.4H292.335L298.095 49.96L303.999 39.4Z" fill="white"/>
<path d="M73.1143 29.5627H66.4872V22H86.0242V41.5369H78.4615V34.9108L31.7085 81.6638L26.3608 76.3162L73.1143 29.5627Z" fill="white"/>
<path d="M31.3476 26.2586L26 31.6063L45.0972 50.7034L50.4448 45.3558L31.3476 26.2586Z" fill="white"/>
<path d="M57.3203 62.9266L62.668 57.579L78.4615 73.3725V66.7459H86.0242V86.2828H66.4872V78.7201H73.1139L57.3203 62.9266Z" fill="white"/>
</g>
<rect x="0.5" y="0.5" width="332" height="101" rx="1.5" stroke="white" stroke-opacity="0.1"/>
<defs>
<clipPath id="clip0_6_37">
<rect width="333" height="102" rx="2" fill="white"/>
</clipPath>
</defs>
</svg>
