<svg width="413" height="183" viewBox="0 0 413 183" fill="none" xmlns="http://www.w3.org/2000/svg">
<path d="M40 43C40 41.8954 40.8954 41 42 41H371C372.105 41 373 41.8954 373 43V141C373 142.105 372.105 143 371 143H42C40.8954 143 40 142.105 40 141V43Z" fill="#404040"/>
<rect x="40" y="40" width="333" height="103" fill="black"/>
<path d="M154.064 114V108.192H171.008V114H154.064ZM154.064 86.208V80.4H171.008V86.208H154.064ZM154.064 99.024V93.312H170.048V99.024H154.064ZM149.648 80.4H156.272V114H149.648V80.4ZM183.101 102.72C183.805 103.968 184.573 105.056 185.405 105.984C186.269 106.912 187.213 107.632 188.237 108.144C189.261 108.656 190.365 108.912 191.549 108.912C192.925 108.912 194.045 108.56 194.909 107.856C195.773 107.152 196.205 106.192 196.205 104.976C196.205 103.92 195.933 103.072 195.389 102.432C194.877 101.792 194.093 101.232 193.037 100.752C192.013 100.24 190.749 99.696 189.245 99.12C188.445 98.832 187.517 98.448 186.461 97.968C185.437 97.456 184.461 96.816 183.533 96.048C182.605 95.248 181.837 94.288 181.229 93.168C180.621 92.016 180.317 90.64 180.317 89.04C180.317 87.12 180.797 85.472 181.757 84.096C182.749 82.688 184.077 81.616 185.741 80.88C187.437 80.112 189.325 79.728 191.405 79.728C193.549 79.728 195.389 80.096 196.925 80.832C198.493 81.536 199.789 82.448 200.813 83.568C201.869 84.656 202.685 85.792 203.261 86.976L197.885 89.952C197.437 89.152 196.893 88.432 196.253 87.792C195.645 87.12 194.941 86.592 194.141 86.208C193.341 85.792 192.429 85.584 191.405 85.584C190.061 85.584 189.053 85.904 188.381 86.544C187.709 87.152 187.373 87.872 187.373 88.704C187.373 89.536 187.645 90.272 188.189 90.912C188.733 91.52 189.565 92.112 190.685 92.688C191.805 93.232 193.213 93.792 194.909 94.368C195.997 94.752 197.037 95.232 198.029 95.808C199.053 96.384 199.965 97.088 200.765 97.92C201.597 98.72 202.237 99.68 202.685 100.8C203.165 101.888 203.405 103.152 203.405 104.592C203.405 106.224 203.085 107.68 202.445 108.96C201.805 110.24 200.925 111.328 199.805 112.224C198.685 113.088 197.421 113.744 196.013 114.192C194.637 114.672 193.181 114.912 191.645 114.912C189.597 114.912 187.677 114.528 185.885 113.76C184.125 112.96 182.589 111.888 181.277 110.544C179.965 109.2 178.941 107.744 178.205 106.176L183.101 102.72ZM208.041 86.592V80.4H233.001V86.592H223.929V114H217.065V86.592H208.041ZM239.176 106.368L239.992 100.944H256.12L256.936 106.368H239.176ZM247.96 91.296L242.92 102.864L243.064 104.4L238.648 114H230.92L247.96 78.432L265 114H257.224L252.904 104.688L253 102.96L247.96 91.296ZM264.31 86.592V80.4H289.27V86.592H280.198V114H273.334V86.592H264.31ZM299.986 114V108.192H316.93V114H299.986ZM299.986 86.208V80.4H316.93V86.208H299.986ZM299.986 99.024V93.312H315.97V99.024H299.986ZM295.57 80.4H302.194V114H295.57V80.4ZM343.999 80.4H352.399L342.079 96.672L353.119 114H344.719L338.047 101.952L331.135 114H322.735L334.063 96.672L323.935 80.4H332.335L338.095 90.96L343.999 80.4Z" fill="white"/>
<path d="M113.114 70.5627H106.487V63H126.024V82.5369H118.461V75.9108L71.7085 122.664L66.3608 117.316L113.114 70.5627Z" fill="white"/>
<path d="M71.3476 67.2586L66 72.6063L85.0972 91.7034L90.4448 86.3558L71.3476 67.2586Z" fill="white"/>
<path d="M97.3203 103.927L102.668 98.579L118.461 114.373V107.746H126.024V127.283H106.487V119.72H113.114L97.3203 103.927Z" fill="white"/>
<path d="M42 42H371V40H42V42ZM372 43V141H374V43H372ZM371 142H42V144H371V142ZM41 141V43H39V141H41ZM42 142C41.4477 142 41 141.552 41 141H39C39 142.657 40.3431 144 42 144V142ZM372 141C372 141.552 371.552 142 371 142V144C372.657 144 374 142.657 374 141H372ZM371 42C371.552 42 372 42.4477 372 43H374C374 41.3431 372.657 40 371 40V42ZM42 40C40.3431 40 39 41.3431 39 43H41C41 42.4477 41.4477 42 42 42V40Z" fill="white" fill-opacity="0.1"/>
<rect x="40" y="9" width="56.9219" height="26" rx="3" fill="#404040"/>
<rect x="40.5" y="9.5" width="55.9219" height="25" rx="2.5" stroke="black" stroke-opacity="0.14902"/>
<path d="M49.3438 19C49.2969 18.6042 49.1068 18.2969 48.7734 18.0781C48.4401 17.8594 48.0313 17.75 47.5469 17.75C47.1927 17.75 46.8828 17.8073 46.6172 17.9219C46.3542 18.0365 46.1484 18.194 46 18.3945C45.8542 18.5951 45.7813 18.8229 45.7813 19.0781C45.7813 19.2917 45.832 19.4753 45.9336 19.6289C46.0378 19.7799 46.1706 19.9062 46.332 20.0078C46.4935 20.1068 46.6628 20.1888 46.8398 20.2539C47.0169 20.3164 47.1797 20.3672 47.3281 20.4062L48.1406 20.625C48.349 20.6797 48.5807 20.7552 48.8359 20.8516C49.0938 20.9479 49.3398 21.0794 49.5742 21.2461C49.8112 21.4102 50.0065 21.6211 50.1602 21.8789C50.3138 22.1367 50.3906 22.4531 50.3906 22.8281C50.3906 23.2604 50.2773 23.651 50.0508 24C49.8268 24.349 49.4987 24.6263 49.0664 24.832C48.6367 25.0378 48.1146 25.1406 47.5 25.1406C46.9271 25.1406 46.431 25.0482 46.0117 24.8633C45.5951 24.6784 45.2669 24.4206 45.0273 24.0898C44.7904 23.7591 44.6563 23.375 44.625 22.9375H45.625C45.651 23.2396 45.7526 23.4896 45.9297 23.6875C46.1094 23.8828 46.3359 24.0286 46.6094 24.125C46.8854 24.2187 47.1823 24.2656 47.5 24.2656C47.8698 24.2656 48.2018 24.2057 48.4961 24.0859C48.7904 23.9635 49.0234 23.7943 49.1953 23.5781C49.3672 23.3594 49.4531 23.1042 49.4531 22.8125C49.4531 22.5469 49.3789 22.3307 49.2305 22.1641C49.082 21.9974 48.8867 21.862 48.6445 21.7578C48.4023 21.6536 48.1406 21.5625 47.8594 21.4844L46.875 21.2031C46.25 21.0234 45.7552 20.7669 45.3906 20.4336C45.026 20.1003 44.8438 19.6641 44.8438 19.125C44.8438 18.6771 44.9648 18.2865 45.207 17.9531C45.4518 17.6172 45.7799 17.3568 46.1914 17.1719C46.6055 16.9844 47.0677 16.8906 47.5781 16.8906C48.0938 16.8906 48.5521 16.9831 48.9531 17.168C49.3542 17.3503 49.6719 17.6003 49.9062 17.918C50.1432 18.2357 50.2682 18.5964 50.2813 19H49.3438ZM54.374 25.125C53.7959 25.125 53.2972 24.9974 52.8779 24.7422C52.4613 24.4844 52.1396 24.125 51.9131 23.6641C51.6891 23.2005 51.5771 22.6615 51.5771 22.0469C51.5771 21.4323 51.6891 20.8906 51.9131 20.4219C52.1396 19.9505 52.4548 19.5833 52.8584 19.3203C53.2646 19.0547 53.7386 18.9219 54.2803 18.9219C54.5928 18.9219 54.9014 18.974 55.2061 19.0781C55.5107 19.1823 55.7881 19.3516 56.0381 19.5859C56.2881 19.8177 56.4873 20.125 56.6357 20.5078C56.7842 20.8906 56.8584 21.362 56.8584 21.9219V22.3125H52.2334V21.5156H55.9209C55.9209 21.1771 55.8532 20.875 55.7178 20.6094C55.585 20.3437 55.3949 20.1341 55.1475 19.9805C54.9027 19.8268 54.6136 19.75 54.2803 19.75C53.9131 19.75 53.5954 19.8411 53.3271 20.0234C53.0615 20.2031 52.8571 20.4375 52.7139 20.7266C52.5706 21.0156 52.499 21.3255 52.499 21.6562V22.1875C52.499 22.6406 52.5771 23.0247 52.7334 23.3398C52.8923 23.6523 53.1123 23.8906 53.3936 24.0547C53.6748 24.2161 54.0016 24.2969 54.374 24.2969C54.6162 24.2969 54.835 24.263 55.0303 24.1953C55.2282 24.125 55.3988 24.0208 55.542 23.8828C55.6852 23.7422 55.7959 23.5677 55.874 23.3594L56.7646 23.6094C56.6709 23.9115 56.5133 24.1771 56.292 24.4062C56.0706 24.6328 55.7972 24.8099 55.4717 24.9375C55.1462 25.0625 54.7803 25.125 54.374 25.125ZM60.6982 25.125C60.1357 25.125 59.6514 24.9922 59.2451 24.7266C58.8389 24.4609 58.5264 24.0951 58.3076 23.6289C58.0889 23.1628 57.9795 22.6302 57.9795 22.0312C57.9795 21.4219 58.0915 20.8841 58.3154 20.418C58.542 19.9492 58.8571 19.5833 59.2607 19.3203C59.667 19.0547 60.141 18.9219 60.6826 18.9219C61.1045 18.9219 61.4847 19 61.8232 19.1562C62.1618 19.3125 62.4391 19.5312 62.6553 19.8125C62.8714 20.0937 63.0055 20.4219 63.0576 20.7969H62.1357C62.0654 20.5234 61.9092 20.2812 61.667 20.0703C61.4274 19.8568 61.1045 19.75 60.6982 19.75C60.3389 19.75 60.0238 19.8437 59.7529 20.0312C59.4847 20.2161 59.2751 20.4779 59.124 20.8164C58.9756 21.1523 58.9014 21.5469 58.9014 22C58.9014 22.4635 58.9743 22.8672 59.1201 23.2109C59.2686 23.5547 59.4769 23.8216 59.7451 24.0117C60.016 24.2018 60.3337 24.2969 60.6982 24.2969C60.9378 24.2969 61.1553 24.2552 61.3506 24.1719C61.5459 24.0885 61.7113 23.9688 61.8467 23.8125C61.9821 23.6562 62.0785 23.4687 62.1357 23.25H63.0576C63.0055 23.6042 62.8766 23.9232 62.6709 24.207C62.4678 24.4883 62.1982 24.7122 61.8623 24.8789C61.529 25.043 61.141 25.125 60.6982 25.125ZM67.0146 19V19.7812H63.9053V19H67.0146ZM64.8115 17.5625H65.7334V23.2812C65.7334 23.5417 65.7712 23.737 65.8467 23.8672C65.9248 23.9948 66.0238 24.0807 66.1436 24.125C66.266 24.1667 66.3949 24.1875 66.5303 24.1875C66.6318 24.1875 66.7152 24.1823 66.7803 24.1719C66.8454 24.1589 66.8975 24.1484 66.9365 24.1406L67.124 24.9687C67.0615 24.9922 66.9743 25.0156 66.8623 25.0391C66.7503 25.0651 66.6084 25.0781 66.4365 25.0781C66.1761 25.0781 65.9209 25.0221 65.6709 24.9102C65.4235 24.7982 65.2178 24.6276 65.0537 24.3984C64.8923 24.1693 64.8115 23.8802 64.8115 23.5312V17.5625ZM68.4014 25V19H69.3232V25H68.4014ZM68.8701 18C68.6904 18 68.5355 17.9388 68.4053 17.8164C68.2777 17.694 68.2139 17.5469 68.2139 17.375C68.2139 17.2031 68.2777 17.056 68.4053 16.9336C68.5355 16.8112 68.6904 16.75 68.8701 16.75C69.0498 16.75 69.2035 16.8112 69.3311 16.9336C69.4613 17.056 69.5264 17.2031 69.5264 17.375C69.5264 17.5469 69.4613 17.694 69.3311 17.8164C69.2035 17.9388 69.0498 18 68.8701 18ZM73.4492 25.125C72.9076 25.125 72.4323 24.9961 72.0234 24.7383C71.6172 24.4805 71.2995 24.1198 71.0703 23.6562C70.8438 23.1927 70.7305 22.651 70.7305 22.0312C70.7305 21.4062 70.8438 20.8607 71.0703 20.3945C71.2995 19.9284 71.6172 19.5664 72.0234 19.3086C72.4323 19.0508 72.9076 18.9219 73.4492 18.9219C73.9909 18.9219 74.4648 19.0508 74.8711 19.3086C75.2799 19.5664 75.5977 19.9284 75.8242 20.3945C76.0534 20.8607 76.168 21.4062 76.168 22.0312C76.168 22.651 76.0534 23.1927 75.8242 23.6562C75.5977 24.1198 75.2799 24.4805 74.8711 24.7383C74.4648 24.9961 73.9909 25.125 73.4492 25.125ZM73.4492 24.2969C73.8607 24.2969 74.1992 24.1914 74.4648 23.9805C74.7305 23.7695 74.9271 23.4922 75.0547 23.1484C75.1823 22.8047 75.2461 22.4323 75.2461 22.0312C75.2461 21.6302 75.1823 21.2565 75.0547 20.9102C74.9271 20.5638 74.7305 20.2839 74.4648 20.0703C74.1992 19.8568 73.8607 19.75 73.4492 19.75C73.0378 19.75 72.6992 19.8568 72.4336 20.0703C72.168 20.2839 71.9714 20.5638 71.8438 20.9102C71.7161 21.2565 71.6523 21.6302 71.6523 22.0312C71.6523 22.4323 71.7161 22.8047 71.8438 23.1484C71.9714 23.4922 72.168 23.7695 72.4336 23.9805C72.6992 24.1914 73.0378 24.2969 73.4492 24.2969ZM78.4971 21.3906V25H77.5752V19H78.4658V19.9375H78.5439C78.6846 19.6328 78.8981 19.388 79.1846 19.2031C79.471 19.0156 79.8408 18.9219 80.2939 18.9219C80.7002 18.9219 81.0557 19.0052 81.3604 19.1719C81.665 19.3359 81.902 19.5859 82.0713 19.9219C82.2406 20.2552 82.3252 20.6771 82.3252 21.1875V25H81.4033V21.25C81.4033 20.7786 81.2809 20.4115 81.0361 20.1484C80.7913 19.8828 80.4554 19.75 80.0283 19.75C79.734 19.75 79.471 19.8138 79.2393 19.9414C79.0101 20.069 78.8291 20.2552 78.6963 20.5C78.5635 20.7448 78.4971 21.0417 78.4971 21.3906ZM87.0879 25V24.2969L89.7285 21.4062C90.0384 21.0677 90.2936 20.7734 90.4941 20.5234C90.6947 20.2708 90.8431 20.0339 90.9395 19.8125C91.0384 19.5885 91.0879 19.3542 91.0879 19.1094C91.0879 18.8281 91.0202 18.5846 90.8848 18.3789C90.752 18.1732 90.5697 18.0143 90.3379 17.9023C90.1061 17.7904 89.8457 17.7344 89.5566 17.7344C89.2493 17.7344 88.9811 17.7982 88.752 17.9258C88.5254 18.0508 88.3496 18.2266 88.2246 18.4531C88.1022 18.6797 88.041 18.9453 88.041 19.25H87.1191C87.1191 18.7812 87.2272 18.3698 87.4434 18.0156C87.6595 17.6615 87.9538 17.3854 88.3262 17.1875C88.7012 16.9896 89.1217 16.8906 89.5879 16.8906C90.0566 16.8906 90.472 16.9896 90.834 17.1875C91.196 17.3854 91.4798 17.6523 91.6855 17.9883C91.8913 18.3242 91.9941 18.6979 91.9941 19.1094C91.9941 19.4036 91.9408 19.6914 91.834 19.9727C91.7298 20.2513 91.5475 20.5625 91.2871 20.9062C91.0293 21.2474 90.6712 21.6641 90.2129 22.1562L88.416 24.0781V24.1406H92.1348V25H87.0879Z" fill="white"/>
</svg>
